<svg id="Capa_1" enable-background="new 0 0 512 512" height="512" viewBox="0 0 512 512" width="512" xmlns="http://www.w3.org/2000/svg"><g><g><g><g><path d="m370 504.5h-228c-22.091 0-40-17.909-40-40v-417c0-22.091 17.909-40 40-40h228c22.091 0 40 17.909 40 40v417c0 22.091-17.909 40-40 40z" fill="#3d6d93"/><path d="m370 7.5h-30c22.091 0 40 17.909 40 40v417c0 22.091-17.909 40-40 40h30c22.091 0 40-17.909 40-40v-417c0-22.091-17.909-40-40-40z" fill="#335e80"/><path d="m329.453 45.5c0 7.466-6.053 13.519-13.519 13.519h-119.868c-7.466 0-13.519-6.053-13.519-13.519 0-4.418-3.582-8-8-8h-27.547c-8.284 0-15 6.716-15 15v407c0 8.284 6.716 15 15 15h218c8.284 0 15-6.716 15-15v-407c0-8.284-6.716-15-15-15h-27.547c-4.418 0-8 3.582-8 8z" fill="#f9f7f8"/><g><g><circle cx="200.447" cy="154.912" fill="#ffe179" r="42.696"/><path d="m200.447 112.217c-5.28 0-10.333.965-15 2.717 16.179 6.073 27.696 21.678 27.696 39.979s-11.517 33.906-27.696 39.979c4.667 1.752 9.72 2.717 15 2.717 23.58 0 42.696-19.115 42.696-42.696s-19.116-42.696-42.696-42.696z" fill="#fbd268"/><path d="m311.175 176.562h-5.062c-1.202 0-2.157-.983-2.157-2.185 0-.007 0-.015 0-.022 0-24.623-19.961-44.584-44.584-44.584s-44.584 19.961-44.584 44.584v.022c.001 1.202-.954 2.185-2.157 2.185h-5.062c-23.238 0-42.68 18.417-43.068 41.652-.396 23.736 18.726 43.101 42.37 43.101h105c23.645 0 42.767-19.366 42.37-43.101-.386-23.235-19.828-41.652-43.066-41.652z" fill="#8fd8fa"/><g><path d="m311.08 176.562h-4.938c-1.207 0-2.185-.978-2.185-2.185v-.022c0-24.623-19.961-44.584-44.584-44.584-13.338 0-25.3 5.865-33.47 15.147 1.146-.088 2.301-.147 3.47-.147 23.078 0 42.184 17.766 44.421 40.166.377 3.773 3.59 6.626 7.382 6.626 23.164 0 42.929 18.942 43.073 42.105.065 10.512-3.705 20.137-9.984 27.577 22.317-1.242 40.027-19.749 39.985-42.386-.044-23.268-19.902-42.297-43.17-42.297z" fill="#6bcdfe"/></g></g><circle cx="325" cy="318.36" fill="#8fd8fa" r="15"/></g></g><circle cx="256" cy="33.26" fill="#335e80" r="7.5"/></g></g><path d="m257.703 409.716c-4.945 6.518-6.796 8.957-5.487 13.204.757 2.455 2.622 4.343 5.118 5.181 1.023.344 31.822.66 43.274.515 4.142-.052 7.457-3.452 7.404-7.594-.052-4.11-3.399-7.405-7.497-7.405-.032 0-.064 0-.097.001-9.372.118-19.364.194-27.004.185 4.516-6.023 11.273-15.218 20.957-29.145 6-8.631 10.248-15.468 10.248-24.892 0-15.505-12.554-28.118-27.984-28.118-13.347 0-24.896 9.541-27.461 22.686-.793 4.065 1.859 8.005 5.925 8.798 4.073.796 8.006-1.86 8.798-5.925 1.193-6.118 6.551-10.559 12.738-10.559 7.159 0 12.984 5.885 12.984 13.118 0 4.626-1.981 8.3-7.563 16.329-12.7 18.263-20.28 28.254-24.353 33.621zm-1.703-368.956c4.142 0 7.5-3.358 7.5-7.5s-3.358-7.5-7.5-7.5-7.5 3.358-7.5 7.5 3.358 7.5 7.5 7.5zm109-10.76h-27.547c-8.547 0-15.5 6.953-15.5 15.5 0 3.319-2.7 6.02-6.02 6.02h-119.867c-3.319 0-6.02-2.7-6.02-6.02 0-8.547-6.953-15.5-15.5-15.5h-27.546c-12.406 0-22.5 10.094-22.5 22.5v84.538c0 4.143 3.357 7.5 7.5 7.5s7.5-3.357 7.5-7.5v-84.538c0-4.136 3.364-7.5 7.5-7.5h27.547c.275 0 .5.225.5.5 0 11.59 9.43 21.02 21.02 21.02h119.867c11.59 0 21.02-9.43 21.02-21.02 0-.275.225-.5.5-.5h27.546c4.136 0 7.5 3.364 7.5 7.5v407c0 4.136-3.364 7.5-7.5 7.5h-218c-4.136 0-7.5-3.364-7.5-7.5v-287.462c0-4.143-3.357-7.5-7.5-7.5s-7.5 3.357-7.5 7.5v287.462c0 12.406 10.094 22.5 22.5 22.5h218c12.406 0 22.5-10.094 22.5-22.5v-407c0-12.406-10.094-22.5-22.5-22.5zm-53.811 139.062c-2.66-26.243-24.885-46.791-51.817-46.791-6.4 0-12.528 1.172-18.196 3.294-9.349-13.006-24.395-20.845-40.726-20.845-27.681 0-50.2 22.516-50.2 50.19 0 13.768 5.673 26.801 15.449 36.19-5.334 7.747-8.53 17.022-8.696 26.988-.226 13.488 4.855 26.21 14.307 35.819 9.453 9.612 22.082 14.906 35.562 14.906h55.712c4.143 0 7.5-3.357 7.5-7.5s-3.357-7.5-7.5-7.5h-55.712c-9.426 0-18.258-3.702-24.868-10.424-6.608-6.72-10.16-15.616-10.003-25.052.316-18.9 16.272-34.277 35.569-34.277h5.062c5.258.024 9.656-4.439 9.656-9.707 0-20.448 16.636-37.084 37.084-37.084s37.084 16.636 37.084 37.105c0 5.341 4.332 9.686 9.657 9.686h5.062c19.297 0 35.253 15.377 35.569 34.277.157 9.436-3.395 18.332-10.003 25.052-6.61 6.722-15.442 10.424-24.869 10.424h-14.288c-4.143 0-7.5 3.357-7.5 7.5s3.357 7.5 7.5 7.5h14.288c13.48 0 26.11-5.294 35.563-14.906 9.451-9.609 14.532-22.331 14.307-35.819-.452-27.028-23.129-49.019-50.553-49.026zm-103.631 0c-11.918.003-22.937 4.162-31.627 11.078-6.762-6.574-10.68-15.649-10.68-25.23 0-19.404 15.791-35.19 35.2-35.19 10.829 0 20.843 4.923 27.444 13.17-11.185 8.513-18.838 21.442-20.337 36.172zm117.442 171.798c12.406 0 22.5-10.094 22.5-22.5s-10.094-22.5-22.5-22.5-22.5 10.094-22.5 22.5 10.094 22.5 22.5 22.5zm0-30c4.136 0 7.5 3.364 7.5 7.5s-3.364 7.5-7.5 7.5-7.5-3.364-7.5-7.5 3.364-7.5 7.5-7.5zm45-310.86h-228c-26.191 0-47.5 21.309-47.5 47.5v417c0 26.191 21.309 47.5 47.5 47.5h228c26.191 0 47.5-21.309 47.5-47.5v-417c0-26.191-21.309-47.5-47.5-47.5zm32.5 464.5c0 17.921-14.579 32.5-32.5 32.5h-228c-17.921 0-32.5-14.579-32.5-32.5v-417c0-17.921 14.579-32.5 32.5-32.5h228c17.921 0 32.5 14.579 32.5 32.5zm-173.453-35.697c4.143 0 7.5-3.357 7.5-7.5v-82.155c0-4.143-3.357-7.5-7.5-7.5h-17.561c-4.143 0-7.5 3.357-7.5 7.5s3.357 7.5 7.5 7.5h10.061v74.655c0 4.142 3.357 7.5 7.5 7.5z"/></g></svg>